<?xml version="1.0" encoding="utf-8"?>
<!-- Generator: Adobe Illustrator 19.1.0, SVG Export Plug-In . SVG Version: 6.00 Build 0)  -->
<!DOCTYPE svg PUBLIC "-//W3C//DTD SVG 1.1//EN" "http://www.w3.org/Graphics/SVG/1.1/DTD/svg11.dtd">
<svg version="1.1" id="Capa_1" xmlns="http://www.w3.org/2000/svg" xmlns:xlink="http://www.w3.org/1999/xlink" x="0px" y="0px"
	 width="512px" height="512px" viewBox="241 -242 512 512" style="enable-background:new 241 -242 512 512;" xml:space="preserve">
<style type="text/css">
	.st0{fill:#F7BDB7;}
</style>
<g>
	<g>
		<path class="st0" d="M738.4,270H255.6c-8.1,0-14.6-6.5-14.6-14.6v-482.7c0-8.1,6.5-14.6,14.6-14.6h482.8c8.1,0,14.6,6.6,14.6,14.6
			v482.7C753,263.5,746.5,270,738.4,270z M270.3,240.8h453.5v-453.5H270.3V240.8z"/>
	</g>
	<g>
		<path class="st0" d="M255.6,270c-3.5,0-7-1.2-9.8-3.7c-6-5.4-6.5-14.7-1.1-20.7L391,82.7c2.6-2.9,6.3-4.7,10.3-4.8
			c3.8-0.2,7.8,1.3,10.6,3.9l38,35.7L565.2,3.6c5.5-5.4,14.3-5.6,20.1-0.4l162.9,146.8c3.1,2.8,4.8,6.7,4.8,10.9v94.6
			c0,8.1-6.5,14.6-14.6,14.6H575.5c-3.7,0-7.3-1.4-10-4L402.8,113.4L266.5,265.2C263.6,268.4,259.6,270,255.6,270z M581.3,240.8
			h142.5v-73.5L576,34.1L471.3,137.6L581.3,240.8z"/>
	</g>
	<g>
		<path class="st0" d="M406.3,18.4c-38.7,0-70.2-31.5-70.2-70.2c0-38.7,31.5-70.2,70.2-70.2s70.2,31.5,70.2,70.2
			C476.5-13.1,445,18.4,406.3,18.4z M406.3-92.8c-22.6,0-41,18.4-41,40.9c0,22.6,18.4,40.9,41,40.9s40.9-18.4,40.9-40.9
			C447.3-74.4,428.9-92.8,406.3-92.8z"/>
	</g>
</g>
<rect x="532" y="-102" width="24.5" height="146"/>
<rect x="471.3" y="-43.1" width="146" height="24.5"/>
</svg>
